<?xml version="1.0" standalone="no"?>
<!DOCTYPE svg PUBLIC "-//W3C//DTD SVG 20010904//EN"
 "http://www.w3.org/TR/2001/REC-SVG-20010904/DTD/svg10.dtd">
<svg version="1.0" xmlns="http://www.w3.org/2000/svg"
 width="500.000000pt" height="500.000000pt" viewBox="0 0 500.000000 500.000000"
 preserveAspectRatio="xMidYMid meet">

<g transform="translate(0.000000,500.000000) scale(0.100000,-0.100000)"
fill="#000000" stroke="none">
<path d="M3131 4623 c1 -64 16 -103 63 -159 75 -89 161 -129 343 -158 50 -8
100 -19 110 -26 15 -9 13 -10 -12 -5 -16 4 -124 10 -240 14 -198 7 -213 9
-267 34 -32 14 -58 22 -58 16 0 -18 74 -91 113 -110 57 -30 159 -49 262 -49
161 -1 130 -27 -55 -46 -74 -7 -119 -24 -168 -60 l-33 -26 -92 35 c-213 81
-433 114 -680 103 -228 -10 -446 -65 -654 -166 -116 -57 -129 -60 -112 -29 6
13 9 44 6 72 -3 41 -11 56 -36 79 -17 15 -35 28 -39 28 -4 0 -6 -18 -4 -40 5
-53 -16 -84 -72 -105 -59 -23 -82 -14 -31 12 84 43 101 102 50 169 -100 131
-373 198 -588 143 -26 -6 -50 -9 -53 -7 -2 3 0 16 5 29 7 17 10 19 10 7 1 -25
51 -25 51 0 0 24 44 112 71 141 33 35 15 36 -36 1 -26 -18 -48 -30 -51 -28 -2
2 5 21 15 41 24 48 12 47 -41 -3 -48 -44 -55 -42 -80 27 -7 18 -15 33 -18 33
-3 0 -14 -22 -25 -50 -11 -27 -21 -50 -23 -50 -2 0 -26 18 -52 40 -28 24 -51
36 -55 30 -3 -5 -2 -10 3 -10 9 0 32 -43 32 -60 0 -10 -63 23 -92 48 -16 13
-18 13 -18 -1 0 -10 4 -17 8 -17 13 0 70 -83 77 -112 6 -23 3 -25 -48 -37 -30
-6 -63 -19 -73 -27 -18 -15 -18 -15 1 -9 11 4 52 9 90 11 50 2 61 1 39 -5 -67
-17 -72 -24 -24 -32 25 -4 65 -8 88 -8 59 -1 51 -21 -14 -36 -78 -18 -87 -29
-29 -36 l50 -6 -66 -1 c-69 -2 -89 -13 -89 -48 0 -12 -9 -32 -20 -45 l-21 -24
16 33 c9 19 15 36 13 38 -2 2 -65 -60 -139 -136 -73 -77 -133 -140 -131 -140
1 0 21 9 42 20 22 11 40 18 40 16 0 -8 -114 -66 -130 -66 -9 0 -25 -9 -34 -19
-15 -16 -17 -30 -11 -73 10 -71 19 -86 59 -93 26 -5 43 -1 77 20 l44 26 -34
-30 c-19 -17 -32 -33 -29 -37 10 -10 107 7 115 19 5 7 13 25 18 41 12 36 57
54 135 55 l55 1 -50 35 c-59 42 -91 52 -117 36 -11 -7 -18 -7 -18 -1 0 13 45
23 73 16 12 -3 57 -26 100 -52 118 -70 173 -63 236 33 39 59 53 127 41 194
-13 66 -48 142 -90 194 -26 33 -31 46 -27 76 3 20 13 49 23 65 l19 28 3 -38
c2 -23 -3 -47 -13 -63 -18 -27 -19 -26 91 -178 54 -74 103 -183 115 -254 14
-77 1 -173 -38 -270 -36 -93 -46 -98 -18 -10 44 142 42 252 -7 355 l-23 49 -6
-53 c-7 -53 -47 -128 -74 -138 -10 -4 -12 -19 -8 -57 7 -70 -6 -97 -116 -247
-100 -134 -162 -252 -181 -340 -6 -30 -10 -95 -8 -145 l3 -90 50 -13 c28 -7
94 -15 148 -19 133 -8 126 -28 -11 -28 -55 0 -99 -1 -98 -3 8 -7 152 -52 169
-52 17 0 19 -5 13 -37 -3 -21 -6 -64 -6 -95 l0 -58 -50 0 -50 0 0 -125 0 -125
50 0 50 0 0 -37 c1 -34 16 -131 35 -220 6 -27 4 -34 -11 -39 -59 -19 -83 -32
-119 -65 l-40 -37 -60 10 c-103 16 -206 -12 -273 -76 -59 -54 -74 -100 -50
-151 15 -32 24 -32 31 3 16 72 92 141 186 169 68 19 167 12 243 -18 51 -20 52
-20 34 -1 -9 11 -31 26 -47 32 -16 7 -29 18 -29 25 0 16 71 51 121 60 l37 7
22 -69 c32 -98 109 -256 168 -349 29 -45 52 -83 52 -86 0 -3 -21 -1 -48 4 -56
11 -135 4 -201 -18 -77 -25 -162 -120 -161 -181 1 -14 6 -11 23 12 82 112 240
162 382 120 53 -15 71 -28 184 -139 156 -151 278 -239 446 -322 252 -123 418
-164 707 -171 175 -5 213 -3 325 17 580 101 1054 486 1279 1038 24 59 48 108
53 110 17 6 127 -58 161 -93 33 -34 33 -55 0 -55 -23 0 -90 -56 -90 -75 0 -10
12 -7 43 10 58 34 136 34 203 0 63 -32 69 -31 43 4 -12 16 -18 34 -15 40 8 13
71 31 111 31 23 0 27 3 15 10 -21 14 -119 12 -171 -3 -64 -18 -86 -12 -99 28
-14 44 -77 105 -137 136 -26 13 -50 25 -52 26 -2 1 6 49 17 105 12 57 24 127
27 156 l7 52 39 0 39 0 0 125 0 125 -39 0 -39 0 -7 63 c-4 34 -13 95 -21 136
-7 41 -12 76 -10 79 10 9 74 -35 129 -89 34 -32 62 -59 64 -59 2 0 3 33 3 73
0 187 -78 314 -258 420 -45 27 -89 58 -97 70 -42 59 -145 222 -145 228 0 13
89 22 153 15 34 -3 103 -15 152 -26 50 -10 129 -27 178 -37 70 -14 86 -21 80
-33 -3 -8 -8 -33 -10 -55 l-4 -40 21 37 c12 22 36 46 58 57 21 11 45 27 53 37
13 15 15 14 26 -22 l11 -39 1 43 c1 25 -8 60 -19 82 -21 40 -40 52 -40 25 0
-9 -14 0 -35 23 -25 27 -35 32 -35 20 0 -25 -12 -22 -40 7 -21 22 -25 23 -33
10 -7 -13 -13 -12 -40 11 -28 24 -32 25 -35 9 -3 -14 -10 -16 -35 -9 -18 4
-68 9 -112 10 l-80 3 -3 39 c-2 30 3 46 23 70 48 58 114 51 179 -17 21 -22 32
-27 37 -19 6 9 15 6 33 -12 24 -22 26 -22 26 -4 1 16 3 14 15 -7 20 -36 45
-45 45 -16 1 21 2 21 15 -4 21 -39 45 -45 45 -12 0 26 0 26 35 -13 l34 -39 1
28 c0 15 5 27 10 27 20 0 68 -29 74 -45 9 -24 23 -10 31 32 3 21 18 66 32 101
27 68 25 86 -6 58 -18 -16 -20 -15 -49 37 -29 51 -73 97 -94 97 -5 0 -2 -10 6
-22 9 -12 16 -31 16 -42 0 -18 -4 -16 -32 11 -42 40 -111 80 -213 123 -96 41
-122 62 -135 109 -14 49 -13 51 13 51 13 1 -7 13 -48 30 -38 17 -104 57 -144
90 -114 91 -276 169 -381 184 -44 6 -42 5 42 -39 52 -26 110 -67 145 -100 32
-31 49 -52 38 -47 -54 26 -220 74 -303 88 -157 25 -248 68 -325 154 -21 22
-45 56 -54 75 -23 48 -33 44 -32 -12z m-2242 -175 c-1 -24 -3 -27 -6 -10 -6
33 -16 27 -48 -28 -31 -54 -32 -55 -55 -40 -13 8 -13 10 2 10 9 0 33 23 53 50
20 28 41 50 46 50 5 0 8 -15 8 -32z m408 -152 c68 -22 144 -74 162 -110 17
-37 3 -69 -48 -103 -42 -29 -51 -29 -51 0 0 29 -33 83 -59 97 -19 9 -21 8 -21
-15 0 -31 -3 -31 -35 1 -35 35 -119 71 -185 79 l-55 6 45 -23 c25 -12 104 -80
177 -150 73 -69 152 -139 178 -153 25 -15 45 -29 45 -31 0 -10 -77 29 -123 62
l-50 36 23 -32 c21 -30 132 -110 152 -110 4 0 8 -5 8 -11 0 -15 -47 -3 -82 22
-15 11 -28 18 -28 15 0 -10 35 -81 42 -87 5 -3 -10 -22 -31 -43 l-39 -38 -40
85 c-56 120 -113 199 -215 301 -62 62 -79 83 -56 70 19 -11 73 -57 120 -104
85 -84 144 -171 185 -272 17 -43 20 -45 35 -32 20 18 15 43 -21 114 -85 170
-307 373 -434 399 -45 10 -43 28 6 40 67 15 333 7 395 -13z m-568 -141 c-22
-36 -55 -65 -74 -65 -5 1 2 8 18 16 15 8 27 18 27 23 0 9 39 61 45 61 3 0 -5
-16 -16 -35z m2031 -11 c109 -16 199 -40 324 -85 84 -30 86 -32 73 -53 -8 -11
-21 -35 -30 -53 l-17 -31 -108 38 c-60 21 -166 48 -238 60 -177 30 -435 24
-594 -13 -103 -25 -228 -67 -302 -103 -37 -17 -38 -17 -61 4 -13 12 -40 30
-61 40 l-37 18 100 47 c292 136 621 181 951 131z m-2120 6 c0 -5 -5 -10 -11
-10 -5 0 -7 5 -4 10 3 6 8 10 11 10 2 0 4 -4 4 -10z m-82 -81 c-13 -20 -107
-84 -114 -76 -3 3 113 93 124 96 1 1 -3 -8 -10 -20z m3487 -16 c22 -25 23 -28
8 -34 -23 -8 -102 1 -127 14 -18 9 -17 11 15 28 48 25 74 23 104 -8z m-1271
-58 c139 -25 416 -121 416 -145 0 -5 -10 -30 -22 -57 -19 -41 -22 -66 -23
-178 0 -110 4 -140 23 -195 35 -101 39 -99 39 17 -1 75 4 120 15 148 l15 40 7
-90 c15 -190 49 -301 116 -374 22 -24 42 -42 45 -40 2 3 -5 33 -15 68 -11 35
-23 88 -26 119 l-5 57 33 -60 c44 -81 129 -163 214 -207 38 -20 123 -53 189
-73 66 -20 127 -40 135 -44 21 -11 47 -97 70 -229 11 -63 20 -118 20 -123 0
-5 -38 -9 -85 -9 l-85 0 0 -125 0 -125 85 0 86 0 -7 -52 c-10 -85 -43 -229
-55 -244 -6 -8 -18 -14 -26 -14 -24 0 -87 -37 -117 -68 -28 -30 -29 -31 -115
-25 -109 7 -179 -11 -239 -63 -68 -58 -89 -118 -58 -172 12 -23 13 -23 30 23
10 25 29 59 43 76 34 40 127 86 187 93 73 8 226 -24 226 -47 0 -39 -158 -281
-251 -387 -118 -132 -321 -285 -481 -360 -221 -103 -403 -143 -653 -143 -250
0 -427 38 -644 139 -163 76 -364 224 -471 347 l-42 47 56 0 c53 0 106 15 106
31 0 12 -61 23 -137 24 l-72 0 -39 55 c-22 30 -54 81 -72 113 -39 70 -35 77
56 77 45 0 73 -6 109 -25 27 -13 50 -23 52 -21 2 2 -6 15 -18 29 -11 15 -18
31 -14 37 7 12 71 30 108 30 18 0 26 4 21 11 -6 11 -108 8 -211 -7 -40 -6 -43
-4 -53 22 -19 49 -77 110 -134 140 -51 27 -56 32 -70 84 -8 30 -20 87 -26 125
-6 39 -13 82 -15 98 l-5 27 80 0 80 0 0 125 0 125 -80 0 c-44 0 -80 4 -80 10
0 5 5 43 11 84 l11 75 47 6 c140 19 277 71 390 147 102 70 195 191 217 283 7
26 1 23 -43 -30 -154 -186 -377 -329 -544 -351 -67 -8 -62 -2 21 26 223 74
490 289 574 463 20 39 38 86 42 102 6 27 3 25 -25 -17 -44 -64 -135 -146 -209
-188 -203 -115 -291 -170 -334 -212 -26 -26 -48 -44 -48 -41 0 14 69 97 109
131 62 52 115 86 250 163 116 65 211 144 211 175 0 14 -5 12 -33 -9 -18 -14
-106 -63 -195 -110 -169 -89 -259 -152 -312 -215 l-31 -37 22 50 c12 28 32 65
44 83 34 49 143 133 309 234 241 148 312 230 286 328 -10 39 -10 45 6 57 46
34 69 -66 35 -160 -16 -47 -17 -56 -5 -46 26 21 66 110 67 148 1 20 -2 51 -6
69 -8 31 -7 33 40 53 140 61 317 106 478 123 75 8 310 -4 399 -19z m562 10
c-23 -17 -42 -19 -50 -6 -7 11 11 19 44 20 24 0 24 0 6 -14z m-83 -79 c-21
-22 -39 -42 -40 -44 -3 -7 -73 22 -73 30 0 4 23 23 51 42 44 30 55 33 76 23
l24 -11 -38 -40z m-1720 -2 c25 -4 35 -10 29 -16 -7 -7 -28 -4 -61 7 -51 17
-71 32 -28 22 12 -3 39 -9 60 -13z m196 -45 c24 -11 42 -21 40 -22 -2 -2 -28
-18 -58 -36 -40 -24 -52 -28 -47 -15 10 27 -3 53 -35 70 -16 8 -27 20 -23 25
8 14 65 3 123 -22z m1942 -46 c-6 -21 -11 -50 -11 -65 0 -33 -10 -35 -34 -9
-21 23 -15 48 21 91 31 38 38 33 24 -17z m-3355 26 c3 -6 15 -8 26 -6 18 5 18
4 6 -11 -8 -9 -20 -30 -26 -46 -7 -16 -15 -26 -18 -23 -3 3 -1 14 5 25 15 28
14 38 -5 56 -8 9 -11 16 -5 16 5 0 13 -5 17 -11z m-12 -25 c6 -16 -24 -83 -38
-84 -5 0 -6 14 -2 30 5 25 3 30 -11 28 -26 -5 -27 27 -1 39 27 12 44 8 52 -13z
m1294 -6 c23 -23 12 -39 -43 -63 -30 -14 -55 -29 -55 -34 0 -6 19 -1 43 9 71
32 74 22 9 -25 -34 -25 -64 -45 -67 -45 -3 0 -5 13 -5 30 0 28 -1 29 -25 18
-23 -10 -25 -15 -19 -54 9 -61 -7 -80 -21 -24 -8 34 -16 45 -30 45 -21 0 -23
-17 -14 -95 6 -51 -15 -49 -23 2 -12 69 -16 73 -38 47 -11 -13 -19 -19 -20
-14 0 16 70 80 109 100 19 9 59 26 89 36 63 22 93 45 85 65 -6 17 9 18 25 2z
m-71 -23 c2 -6 -24 -19 -57 -31 -60 -21 -68 -8 -10 16 16 7 27 17 24 22 -4 5
4 8 17 6 12 -1 24 -8 26 -13z m188 -15 c-3 -5 -16 -15 -28 -21 -19 -9 -19 -8
3 10 28 23 34 26 25 11z m-759 -94 c-11 -69 -58 -154 -153 -271 -48 -61 -96
-122 -105 -135 l-18 -25 11 30 c16 46 56 111 134 215 73 99 111 168 122 223 9
45 16 14 9 -37z m779 16 c-11 -52 -73 -104 -240 -202 -49 -29 -126 -78 -170
-109 -75 -53 -78 -54 -56 -22 13 18 39 42 58 53 22 14 33 27 33 43 0 13 5 27
10 30 6 3 10 -1 10 -9 0 -19 9 -20 33 -2 10 8 17 27 17 49 0 20 4 39 10 42 8
5 12 -4 23 -57 3 -11 147 83 196 128 23 20 49 51 57 67 19 35 28 29 19 -11z
m1912 -4 c6 -7 13 -26 17 -43 19 -78 110 -181 139 -156 10 8 26 -8 71 -76 31
-47 55 -88 52 -90 -6 -6 -86 49 -111 77 -11 12 -41 33 -66 46 -26 13 -62 42
-82 64 -35 41 -67 129 -67 184 0 23 3 25 18 17 10 -5 23 -16 29 -23z m-2491
-455 c-29 -49 -65 -119 -80 -158 l-27 -70 6 50 c6 63 53 158 106 218 22 26 42
47 44 47 3 0 -20 -39 -49 -87z m2966 -408 c9 -44 20 -113 24 -152 l6 -73 -55
0 -55 0 -7 65 c-4 36 -18 114 -31 173 -13 59 -24 108 -24 109 0 1 28 -8 62
-20 l63 -22 17 -80z m-3114 43 c-5 -14 -44 -25 -96 -27 -50 -2 -35 23 19 30
73 10 81 10 77 -3z m-21 -102 c1 -1 -3 -21 -7 -46 -5 -25 -9 -62 -10 -82 l0
-38 -61 0 -62 0 7 68 c12 116 10 113 75 106 31 -4 57 -7 58 -8z m-12 -473 c7
-62 33 -195 42 -219 4 -11 -7 -14 -55 -14 l-60 0 -16 69 c-13 59 -35 188 -36
214 0 4 26 7 59 7 l59 0 7 -57z m3171 -5 c-9 -76 -35 -207 -46 -228 -6 -11
-21 -14 -59 -12 -43 3 -51 7 -47 20 14 44 46 218 46 248 l0 34 56 0 57 0 -7
-62z m-3112 -298 c5 -5 26 -50 47 -101 28 -68 35 -97 28 -110 -13 -26 -11 -33
6 -19 9 7 17 11 19 9 1 -2 20 -33 41 -69 21 -36 54 -86 73 -112 18 -27 29 -48
24 -48 -6 0 -24 -12 -41 -26 -17 -14 -38 -23 -46 -20 -19 7 -112 149 -160 246
-40 79 -105 241 -105 261 0 13 99 4 114 -11z m3042 -3 c10 -9 -78 -216 -129
-306 -80 -140 -155 -238 -272 -356 -256 -258 -573 -420 -930 -476 -107 -17
-378 -17 -490 0 -339 51 -670 218 -920 464 -62 61 -76 80 -65 87 12 7 10 13
-9 34 -26 28 -23 40 17 54 28 9 34 5 143 -102 218 -214 478 -355 769 -418 138
-30 399 -36 545 -13 439 69 810 306 1062 680 46 68 121 215 148 290 27 73 33
78 83 72 23 -2 45 -7 48 -10z m-136 -6 c0 -19 -40 -101 -48 -101 -5 0 -15 7
-22 15 -7 8 -18 15 -25 15 -7 0 -18 7 -25 15 -10 13 -4 19 41 40 57 26 79 31
79 16z m-2827 -22 c44 -23 108 -82 105 -96 -2 -8 -20 -21 -42 -28 l-38 -13
-29 64 c-39 86 -39 95 4 73z"/>
<path d="M920 4290 c-10 -7 8 -10 60 -10 96 -1 211 -21 277 -50 54 -23 91 -56
116 -105 l16 -30 16 38 c13 32 14 42 3 65 -17 36 -81 70 -165 87 -77 17 -300
20 -323 5z"/>
<path d="M1719 3590 c-26 -25 -123 -91 -217 -148 -94 -57 -193 -123 -219 -148
-52 -49 -47 -48 37 7 30 19 118 69 194 110 146 78 239 150 250 195 4 15 6 27
4 28 -2 0 -24 -19 -49 -44z"/>
<path d="M2160 3540 c0 -5 9 -14 20 -20 22 -12 27 -1 8 18 -14 14 -28 16 -28
2z"/>
<path d="M2735 3541 c9 -16 -7 -122 -21 -136 -11 -11 -10 -14 8 -18 25 -7 46
2 29 12 -7 5 -9 24 -4 57 l7 49 16 -64 c8 -36 21 -66 28 -69 6 -2 24 22 39 52
15 31 30 56 33 56 9 0 -1 -84 -11 -96 -6 -8 -4 -14 7 -18 35 -13 39 -7 39 64
0 48 4 73 13 79 11 7 10 10 -3 15 -32 12 -40 6 -69 -49 -15 -30 -32 -53 -36
-50 -4 2 -13 32 -20 65 -11 53 -15 60 -37 60 -13 0 -22 -4 -18 -9z"/>
<path d="M2561 3526 c-7 -8 -19 -12 -27 -9 -35 13 -85 -53 -54 -72 6 -4 7 -12
3 -18 -4 -7 -9 -29 -10 -49 -2 -33 0 -38 24 -44 41 -11 77 7 81 38 3 25 0 28
-37 34 -44 7 -56 24 -17 24 31 0 48 22 44 57 -2 17 2 28 10 28 14 0 18 18 4
23 -5 1 -15 -4 -21 -12z m-23 -53 c-3 -30 -25 -42 -34 -19 -9 22 2 46 21 46
12 0 15 -8 13 -27z m20 -111 c3 -10 -5 -13 -29 -10 -18 2 -34 9 -37 16 -3 10
5 13 29 10 18 -2 34 -9 37 -16z"/>
<path d="M2056 3513 c-14 -4 -15 -7 -6 -13 9 -5 10 -21 3 -61 l-9 -54 -27 41
c-17 25 -25 47 -21 58 6 14 2 16 -22 10 -43 -10 -45 -13 -25 -35 10 -11 34
-43 52 -70 19 -27 39 -49 45 -49 7 0 16 31 21 73 6 39 13 80 18 90 7 17 4 18
-29 10z"/>
<path d="M2308 3502 c-20 -4 -25 -22 -7 -22 7 0 10 -17 7 -45 -3 -44 -3 -45
27 -45 20 0 26 3 17 9 -19 12 -12 86 8 86 18 0 30 -53 18 -77 -7 -15 -4 -18
22 -18 28 0 31 2 24 23 -4 12 -10 38 -13 57 -6 33 -9 35 -46 35 -22 0 -48 -1
-57 -3z"/>
<path d="M3000 3504 c0 -12 51 -35 61 -28 13 8 11 21 -3 22 -7 0 -23 4 -35 7
-13 4 -23 3 -23 -1z"/>
<path d="M1751 3469 c19 -37 7 -157 -23 -221 -60 -130 -185 -274 -309 -357
-68 -45 -69 -48 -13 -25 159 66 338 258 393 422 32 94 26 155 -18 189 -27 21
-44 16 -30 -8z"/>
<path d="M2157 3483 c-11 -10 -8 -43 3 -43 6 0 10 6 10 14 0 21 21 31 31 15
13 -21 12 -24 -22 -36 -24 -9 -30 -17 -27 -35 3 -21 8 -23 52 -20 50 2 72 11
49 19 -7 3 -13 19 -13 37 0 18 -5 37 -12 44 -13 13 -60 16 -71 5z m53 -73 c0
-11 -7 -20 -15 -20 -27 0 -18 30 13 39 1 1 2 -8 2 -19z"/>
<path d="M2988 3449 c-22 -12 -23 -29 -3 -29 8 0 15 5 15 10 0 6 7 10 15 10 8
0 15 -9 15 -20 0 -15 -7 -20 -29 -20 -30 0 -56 -21 -49 -41 5 -15 97 -39 104
-28 3 5 1 9 -5 9 -7 0 -7 8 -1 26 18 45 12 74 -16 84 -30 12 -25 12 -46 -1z
m32 -72 c0 -19 -10 -27 -26 -20 -11 4 -12 9 -3 19 15 18 29 18 29 1z"/>
<path d="M2483 2992 c20 -22 21 -62 4 -152 -11 -55 -15 -65 -32 -63 -11 1 -45
4 -75 8 l-55 6 3 83 c4 75 2 86 -17 105 -13 13 -34 21 -57 21 -32 0 -34 -1
-20 -16 17 -16 20 -71 9 -138 l-6 -38 -54 6 c-31 4 -53 2 -53 -3 0 -26 26 -61
56 -77 32 -17 33 -20 27 -64 -3 -25 -14 -90 -24 -145 -23 -120 -22 -115 -5
-115 8 0 24 15 35 33 23 37 81 208 81 239 0 18 5 19 73 12 39 -3 74 -8 76 -11
3 -2 -3 -43 -12 -92 -27 -142 -22 -157 31 -97 27 32 72 130 72 159 0 7 8 28
19 47 14 28 19 58 20 135 0 55 -2 112 -5 126 -5 29 -39 49 -81 49 -25 0 -25
-1 -10 -18z"/>
<path d="M2708 2949 c-29 -16 -21 -24 24 -24 53 0 58 -17 13 -43 -23 -14 -35
-29 -35 -44 l0 -22 20 22 c12 12 24 22 29 22 13 0 51 40 51 55 0 26 -73 51
-102 34z"/>
<path d="M2957 2813 c-4 -3 -7 -17 -7 -31 0 -18 4 -23 16 -18 9 3 18 6 20 6 2
0 4 11 4 25 0 24 -18 34 -33 18z"/>
<path d="M2713 2784 c-53 -26 -111 -82 -123 -120 -10 -29 -9 -39 5 -60 9 -14
23 -28 31 -31 21 -8 62 23 87 65 l21 36 8 -33 c11 -42 46 -58 87 -41 32 13 57
37 49 45 -3 3 -22 -2 -43 -11 -52 -21 -61 -10 -47 61 19 94 -5 123 -75 89z m3
-83 c-17 -31 -85 -95 -93 -87 -19 19 59 116 93 116 13 0 13 -4 0 -29z"/>
<path d="M2911 2700 c-11 -27 -21 -60 -21 -74 0 -29 33 -56 59 -49 23 6 94 64
87 70 -3 3 -21 -8 -41 -26 -35 -31 -75 -41 -75 -20 0 6 11 33 25 61 30 60 30
64 6 77 -16 9 -21 4 -40 -39z"/>
<path d="M2001 2517 c-16 -21 -143 -504 -139 -534 5 -41 32 -52 65 -27 34 25
60 92 104 274 l33 135 13 -136 c14 -154 22 -181 58 -205 25 -16 27 -16 57 12
37 35 57 79 114 252 47 142 52 173 30 191 -20 17 -31 -6 -55 -117 -17 -77 -82
-259 -111 -311 -19 -34 -41 72 -61 293 -12 139 -20 163 -54 176 -34 13 -40 13
-54 -3z"/>
<path d="M2989 2488 c0 -2 -2 -11 -4 -20 -2 -9 -9 -33 -15 -54 l-12 -37 -57 6
c-31 3 -65 9 -76 13 -43 16 16 -34 61 -53 49 -20 50 -23 29 -83 -31 -89 -9
-211 44 -240 43 -23 151 2 151 35 0 13 -6 12 -37 -5 -74 -40 -108 -20 -101 58
3 27 19 80 37 119 l33 71 52 7 c68 9 112 29 126 55 15 28 9 33 -24 20 -15 -5
-50 -10 -77 -10 -48 0 -49 1 -49 31 0 20 -10 40 -29 60 -25 24 -49 37 -52 27z"/>
<path d="M2710 2411 c-27 -27 -48 -76 -37 -87 20 -20 137 65 137 99 0 30 -67
22 -100 -12z"/>
<path d="M2475 2291 c-70 -32 -121 -77 -145 -126 -22 -45 -22 -49 -7 -81 13
-27 23 -34 45 -34 35 0 61 18 97 69 15 23 30 39 32 37 8 -8 -18 -131 -37 -173
-10 -23 -30 -49 -44 -58 -25 -17 -29 -17 -72 0 -48 18 -58 17 -49 -7 9 -23 50
-38 102 -38 40 0 51 5 82 38 36 38 81 144 81 190 0 27 16 29 25 3 15 -47 76
-31 111 29 22 36 30 38 38 5 10 -39 41 -50 87 -29 51 22 55 50 4 28 -56 -23
-57 -22 -50 61 8 87 -2 110 -44 100 -46 -11 -117 -64 -137 -101 l-19 -35 -6
61 c-8 83 -24 93 -94 61z m235 -66 c0 -18 -87 -111 -96 -102 -11 11 18 66 48
92 34 29 48 31 48 10z m-230 -5 c0 -33 -100 -133 -116 -117 -12 12 32 82 65
104 37 25 51 28 51 13z"/>
<path d="M2060 1632 c0 -5 7 -15 15 -22 8 -7 15 -8 15 -2 0 5 -7 15 -15 22 -8
7 -15 8 -15 2z"/>
<path d="M2415 1599 c-11 -17 1 -21 15 -4 8 9 8 15 2 15 -6 0 -14 -5 -17 -11z"/>
<path d="M3046 1594 c-4 -10 -1 -14 6 -12 15 5 23 28 10 28 -5 0 -13 -7 -16
-16z"/>
<path d="M3150 1595 c0 -9 5 -15 11 -13 6 2 11 8 11 13 0 5 -5 11 -11 13 -6 2
-11 -4 -11 -13z"/>
<path d="M1845 1530 l0 -70 38 0 c45 0 87 36 87 74 0 34 -43 66 -89 66 l-36 0
0 -70z m79 44 c32 -31 11 -104 -30 -104 -8 0 -14 10 -14 25 0 16 6 25 15 25 8
0 15 5 15 10 0 6 -7 10 -15 10 -15 0 -21 31 -8 43 10 11 20 8 37 -9z"/>
<path d="M2036 1591 c-3 -5 5 -8 19 -8 14 0 22 3 19 8 -3 5 -11 9 -19 9 -8 0
-16 -4 -19 -9z"/>
<path d="M2231 1574 c-26 -34 -27 -68 -1 -94 24 -24 73 -26 91 -3 13 15 12 15
-9 4 -46 -25 -83 14 -68 73 8 31 45 45 61 22 16 -21 25 -20 25 2 0 15 -8 19
-39 20 -32 2 -44 -3 -60 -24z"/>
<path d="M2868 1588 c16 -16 16 -100 0 -116 -9 -9 -2 -12 34 -12 63 0 97 32
63 60 -11 9 -12 17 -4 33 9 16 8 23 -7 34 -24 17 -103 18 -86 1z m67 -24 c0
-10 -8 -20 -17 -22 -18 -3 -26 27 -11 42 12 11 28 0 28 -20z m5 -50 c11 -12
11 -18 -2 -31 -19 -18 -38 -10 -38 16 0 33 20 40 40 15z"/>
<path d="M2735 1570 c-3 -5 -17 -10 -29 -10 -34 0 -53 -26 -38 -50 6 -11 8
-22 3 -25 -5 -3 -9 -20 -8 -38 2 -29 5 -32 37 -35 24 -3 38 2 47 14 17 24 0
44 -38 44 -16 0 -29 5 -29 10 0 6 11 10 24 10 30 0 50 23 41 50 -4 11 -2 20 4
20 6 0 11 5 11 10 0 6 -4 10 -9 10 -6 0 -13 -4 -16 -10z m-17 -48 c2 -15 -2
-22 -12 -22 -11 0 -16 9 -16 26 0 31 23 28 28 -4z m12 -87 c0 -15 -43 -12 -48
3 -3 10 4 13 22 10 15 -2 26 -7 26 -13z"/>
<path d="M2022 1548 c-7 -7 -12 -24 -12 -38 0 -31 17 -50 45 -50 28 0 45 19
45 50 0 31 -17 50 -45 50 -12 0 -26 -5 -33 -12z m47 -16 c12 -23 3 -62 -14
-62 -17 0 -28 34 -20 60 8 25 21 26 34 2z"/>
<path d="M2370 1550 c-9 -6 -10 -10 -3 -10 6 0 13 -17 15 -37 3 -38 3 -38 52
-40 38 -2 47 0 38 9 -7 7 -12 29 -12 51 0 26 -4 37 -12 35 -8 -3 -12 -18 -10
-40 2 -24 -1 -37 -12 -41 -17 -7 -26 12 -26 54 0 31 -6 35 -30 19z"/>
<path d="M2519 1557 c0 -1 -1 -23 -2 -50 -2 -41 0 -47 18 -47 18 0 20 5 17 41
-4 36 -2 40 14 37 23 -4 31 -43 14 -64 -10 -11 -8 -14 12 -14 23 0 24 2 18 48
l-5 47 -42 2 c-24 1 -43 1 -44 0z"/>
<path d="M3025 1549 c-4 -6 -4 -13 0 -17 3 -3 10 0 14 7 5 7 14 10 20 7 18
-12 13 -21 -20 -33 -47 -18 -36 -47 18 -50 l42 -2 -6 37 c-2 20 -6 43 -9 50
-4 15 -50 16 -59 1z m45 -59 c0 -5 -7 -10 -15 -10 -8 0 -15 5 -15 10 0 6 7 10
15 10 8 0 15 -4 15 -10z"/>
<path d="M3149 1558 c0 -2 -1 -24 -2 -50 -3 -45 -1 -48 22 -48 19 0 22 3 13
12 -7 7 -12 29 -12 50 0 21 -4 38 -10 38 -5 0 -10 -1 -11 -2z"/>
<path d="M522 4270 c-18 -11 -37 -32 -42 -46 -13 -33 -13 -104 0 -104 6 0 10
8 10 18 0 47 70 108 155 135 l50 16 -49 -5 c-27 -3 -55 -8 -64 -12 -10 -3 -13
-1 -8 6 11 18 -15 14 -52 -8z"/>
<path d="M585 4237 c-22 -12 -50 -38 -62 -56 -33 -49 -28 -57 10 -15 17 21 52
50 76 66 53 33 34 38 -24 5z"/>
<path d="M4393 1556 c-28 -7 -66 -25 -84 -40 -17 -15 -38 -25 -45 -22 -91 35
-210 37 -294 6 -67 -25 -134 -86 -151 -137 -16 -50 -6 -59 22 -19 47 67 137
114 234 123 68 6 168 -15 223 -48 33 -19 72 -18 72 1 0 5 -9 14 -20 20 -59 32
14 73 124 69 50 -2 80 2 101 13 l30 16 -26 10 c-45 18 -132 22 -186 8z"/>
</g>
</svg>
